<svg xmlns="http://www.w3.org/2000/svg" viewBox="0 0 1040 470" role="img" aria-labelledby="title desc"><title id="title">F-shaped scanning: one observed pattern</title><desc id="desc">A schematic document with a top horizontal scan, a shorter second line, and a left-edge vertical path. Not actual eye-tracking data.</desc><rect x="0" y="0" width="1040" height="470" rx="18" fill="#f8fafc"/><g font-family="Arial,sans-serif"><text x="34" y="46" fill="#0f172a" font-size="29" font-weight="700">F-shaped scanning: one observed pattern</text><text x="34" y="82" fill="#475569" font-size="16" font-weight="400">Scanning changes with content, language direction, and task.</text><rect x="68" y="137" width="903" height="258" rx="10" fill="#ffffff" stroke="#94a3b8"/><rect x="105" y="177" width="780" height="9" rx="2" fill="#cbd5e1"/><rect x="105" y="202" width="650" height="9" rx="2" fill="#cbd5e1"/><rect x="105" y="227" width="540" height="9" rx="2" fill="#cbd5e1"/><rect x="105" y="252" width="720" height="9" rx="2" fill="#cbd5e1"/><rect x="105" y="277" width="490" height="9" rx="2" fill="#cbd5e1"/><rect x="105" y="302" width="655" height="9" rx="2" fill="#cbd5e1"/><rect x="105" y="327" width="680" height="9" rx="2" fill="#cbd5e1"/><rect x="105" y="352" width="430" height="9" rx="2" fill="#cbd5e1"/><path d="M101 157 L908 157" stroke="#e11d48" stroke-width="8" fill="none" /><path d="M101 213 L634 213" stroke="#e11d48" stroke-width="8" fill="none" /><path d="M102 157 L102 369" stroke="#e11d48" stroke-width="7" fill="none" /><text x="701" y="366" fill="#be123c" font-size="18" font-weight="700">Illustrative scan trace</text></g></svg>
